<?xml version="1.0" standalone="no"?>
<!DOCTYPE svg PUBLIC "-//W3C//DTD SVG 20010904//EN"
 "http://www.w3.org/TR/2001/REC-SVG-20010904/DTD/svg10.dtd">
<svg version="1.0" xmlns="http://www.w3.org/2000/svg"
 width="64.000000pt" height="64.000000pt" viewBox="0 0 64.000000 64.000000"
 preserveAspectRatio="xMidYMid meet">

<g transform="translate(0.000000,64.000000) scale(0.100000,-0.100000)"
fill="#000000" stroke="none">
<path d="M53 623 c-22 -8 -14 -58 17 -118 35 -67 37 -80 11 -65 -23 12 -61 13
-61 3 0 -17 17 -31 58 -52 42 -21 43 -23 40 -64 -3 -44 -16 -51 -60 -32 -14 5
-18 2 -18 -12 0 -12 19 -33 46 -53 44 -31 46 -35 40 -70 -10 -67 -35 -111 -66
-122 -17 -5 -30 -14 -30 -19 0 -5 126 -9 295 -9 244 0 295 2 295 14 0 19 -25
38 -47 34 -11 -2 -18 3 -18 12 0 8 5 15 12 15 23 0 37 23 24 39 -14 17 -41 11
-41 -9 0 -11 -20 -25 -36 -25 -2 0 -4 15 -4 33 0 28 5 36 35 50 19 9 35 23 35
32 0 18 -14 19 -42 4 -11 -6 -18 -7 -16 -2 36 73 49 107 44 119 -8 20 -27 17
-33 -6 -5 -20 -23 -28 -23 -10 0 13 -27 13 -35 0 -3 -5 0 -22 8 -37 11 -23 12
-32 1 -53 -8 -14 -14 -32 -14 -42 0 -11 -6 -15 -20 -11 -15 4 -20 0 -20 -16 0
-12 5 -31 11 -43 10 -19 9 -20 -48 -14 -177 17 -195 25 -118 52 48 16 70 41
54 61 -9 10 -15 11 -26 1 -20 -16 -34 7 -31 51 3 30 10 39 48 61 65 38 64 84
-2 49 -11 -6 -22 -9 -24 -6 -2 2 10 34 27 70 31 67 35 107 11 115 -7 2 -19
-13 -28 -35 -16 -36 -17 -37 -25 -15 -10 27 -49 31 -49 4 0 -10 7 -27 15 -38
18 -24 18 -44 0 -68 -12 -15 -17 -17 -29 -7 -9 7 -21 9 -28 5 -8 -5 -6 3 4 19
10 14 18 33 18 42 0 17 -25 21 -35 5 -11 -17 -22 -11 -35 20 -10 25 -10 34 4
55 30 46 8 87 -25 46 l-18 -22 -15 35 c-8 20 -16 36 -18 35 -2 0 -9 -3 -15 -6z
m48 -103 c4 0 12 14 18 30 5 17 15 30 20 30 15 0 13 -11 -4 -34 -18 -23 -20
-72 -4 -82 6 -3 9 -17 6 -30 -5 -29 4 -31 28 -4 28 31 39 24 15 -10 -20 -28
-21 -36 -11 -97 6 -37 17 -73 25 -81 14 -14 16 -12 26 12 14 39 13 57 -10 94
-11 17 -15 32 -10 32 6 0 13 -7 16 -15 4 -9 14 -20 24 -25 14 -8 17 -5 18 18
0 15 4 41 7 58 5 22 2 40 -10 57 -11 17 -13 27 -5 32 5 3 12 -1 15 -9 3 -9 7
-23 10 -31 8 -26 21 -16 35 25 7 22 17 40 22 40 13 0 2 -35 -33 -104 -16 -32
-29 -63 -29 -69 0 -6 16 -7 40 -3 48 8 51 1 8 -17 -18 -8 -39 -21 -45 -29 -15
-17 -20 -75 -9 -101 7 -14 5 -16 -10 -11 -16 6 -17 5 -6 -7 10 -10 19 -11 41
-2 24 9 29 8 24 -3 -3 -8 -23 -19 -44 -24 -26 -7 -44 -19 -51 -35 -12 -28 -57
-42 -70 -23 -8 10 -9 9 -5 -4 3 -9 -1 -19 -9 -22 -18 -7 -18 1 1 54 8 23 15
48 15 55 0 7 -23 32 -51 54 -57 45 -57 49 -4 24 27 -13 38 -14 47 -5 9 9 8 12
-5 12 -14 0 -16 4 -8 19 6 10 8 35 4 55 -5 30 -13 41 -44 56 -48 25 -60 43
-19 28 51 -17 54 1 14 85 -21 46 -33 81 -28 89 5 8 13 -3 23 -35 8 -26 18 -47
22 -47z m112 -244 l-6 -29 -13 24 c-7 13 -13 40 -13 59 l-1 35 19 -30 c13 -20
18 -40 14 -59z m318 -17 c-29 -56 -28 -73 7 -65 26 5 25 5 -5 -11 -32 -16 -52
-60 -38 -83 3 -5 -3 -10 -13 -10 -20 0 -51 54 -38 67 3 3 6 1 6 -5 0 -21 29
-13 35 11 17 66 29 97 36 97 4 0 11 15 15 33 4 17 9 26 11 19 3 -7 -5 -30 -16
-53z m49 -149 c0 -5 -4 -10 -10 -10 -5 0 -10 5 -10 10 0 6 5 10 10 10 6 0 10
-4 10 -10z m-257 -26 c22 -12 54 -17 110 -15 44 0 83 4 88 7 5 3 9 -4 9 -15 0
-16 8 -21 38 -24 20 -2 -80 -4 -223 -5 l-260 -1 40 24 c46 28 65 31 103 11 41
-20 72 -28 72 -18 0 5 -18 14 -40 21 -22 7 -38 16 -35 21 10 15 63 12 98 -6z"/>
<path d="M162 199 c-1 -9 -5 -32 -8 -50 -4 -28 -3 -31 6 -16 6 9 9 32 7 50 -2
17 -5 25 -5 16z"/>
<path d="M208 608 c-8 -21 2 -38 22 -38 19 0 30 17 23 38 -3 6 -13 12 -23 12
-10 0 -20 -6 -22 -12z"/>
<path d="M515 461 c-8 -15 3 -31 21 -31 9 0 14 7 12 17 -4 20 -24 28 -33 14z"/>
<path d="M414 435 c-9 -23 3 -45 24 -45 25 0 44 23 36 44 -8 20 -53 21 -60 1z
m42 -6 c10 -17 -13 -36 -27 -22 -12 12 -4 33 11 33 5 0 12 -5 16 -11z"/>
<path d="M430 310 c0 -11 7 -20 15 -20 8 0 15 9 15 20 0 11 -7 20 -15 20 -8 0
-15 -9 -15 -20z"/>
<path d="M347 263 c-15 -14 -7 -43 12 -43 26 0 36 17 21 35 -14 16 -23 19 -33
8z m23 -23 c0 -5 -4 -10 -10 -10 -5 0 -10 5 -10 10 0 6 5 10 10 10 6 0 10 -4
10 -10z"/>
<path d="M34 136 c-8 -21 3 -36 27 -36 15 0 20 6 17 22 -4 27 -35 37 -44 14z
m36 -16 c0 -5 -4 -10 -10 -10 -5 0 -10 5 -10 10 0 6 5 10 10 10 6 0 10 -4 10
-10z"/>
</g>
</svg>
